HIERARCHY
ROOT Hips
{
 OFFSET 0.000000 0.000000 0.000000
 CHANNELS 6 Xposition Yposition Zposition Yrotation Xrotation Zrotation
 JOINT Chest
 {
  OFFSET 0.000000 9.585900 0.002600
  CHANNELS 3 Yrotation Xrotation Zrotation
  JOINT Chest2
  {
   OFFSET 0.000000 9.601200 -0.005300
   CHANNELS 3 Yrotation Xrotation Zrotation
   JOINT Chest3
   {
    OFFSET 0.000000 9.561800 0.000000
    CHANNELS 3 Yrotation Xrotation Zrotation
    JOINT Chest4
    {
     OFFSET 0.000000 9.552100 0.000000
     CHANNELS 3 Yrotation Xrotation Zrotation
     JOINT Neck
     {
      OFFSET 0.000000 14.453000 0.000000
      CHANNELS 3 Yrotation Xrotation Zrotation
      JOINT Head
      {
       OFFSET 0.000000 8.936500 -0.011300
       CHANNELS 3 Yrotation Xrotation Zrotation
       End Site
       {
        OFFSET 0.000000 17.073600 -0.006000
       }
      }
     }
     JOINT RightCollar
     {
      OFFSET -2.921100 9.558500 0.000000
      CHANNELS 3 Yrotation Xrotation Zrotation
      JOINT RightShoulder
      {
       OFFSET -13.519700 0.000000 0.000000
       CHANNELS 3 Yrotation Xrotation Zrotation
       JOINT RightElbow
       {
        OFFSET 0.000000 -29.696600 0.000000
        CHANNELS 3 Yrotation Xrotation Zrotation
        JOINT RightWrist
        {
         OFFSET 0.000000 -24.004700 0.000000
         CHANNELS 3 Yrotation Xrotation Zrotation
         End Site
         {
          OFFSET 0.000000 -17.728500 0.000000
         }
        }
       }
      }
     }
     JOINT LeftCollar
     {
      OFFSET 2.921100 9.558500 0.000000
      CHANNELS 3 Yrotation Xrotation Zrotation
      JOINT LeftShoulder
      {
       OFFSET 13.519700 0.000000 0.000000
       CHANNELS 3 Yrotation Xrotation Zrotation
       JOINT LeftElbow
       {
        OFFSET 0.000000 -29.696600 0.000000
        CHANNELS 3 Yrotation Xrotation Zrotation
        JOINT LeftWrist
        {
         OFFSET 0.000000 -24.004700 0.000000
         CHANNELS 3 Yrotation Xrotation Zrotation
         End Site
         {
          OFFSET 0.000000 -17.728500 0.000000
         }
        }
       }
      }
     }
    }
   }
  }
 }
 JOINT RightHip
 {
  OFFSET -7.771700 -0.012900 -0.001300
  CHANNELS 3 Yrotation Xrotation Zrotation
  JOINT RightKnee
  {
   OFFSET 0.000000 -40.869800 0.001200
   CHANNELS 3 Yrotation Xrotation Zrotation
   JOINT RightAnkle
   {
    OFFSET 0.000000 -39.717900 0.002100
    CHANNELS 3 Yrotation Xrotation Zrotation
    JOINT RightToe
    {
     OFFSET 0.000000 -4.965400 11.033500
     CHANNELS 3 Yrotation Xrotation Zrotation
     End Site
     {
      OFFSET 0.000000 -1.423100 5.872300
     }
    }
   }
  }
 }
 JOINT LeftHip
 {
  OFFSET 7.771700 -0.012900 -0.001300
  CHANNELS 3 Yrotation Xrotation Zrotation
  JOINT LeftKnee
  {
   OFFSET 0.000000 -40.869800 0.001200
   CHANNELS 3 Yrotation Xrotation Zrotation
   JOINT LeftAnkle
   {
    OFFSET 0.000000 -39.717900 0.002100
    CHANNELS 3 Yrotation Xrotation Zrotation
    JOINT LeftToe
    {
     OFFSET 0.000000 -4.965400 11.033500
     CHANNELS 3 Yrotation Xrotation Zrotation
     End Site
     {
      OFFSET 0.000000 -1.423100 5.872300
     }
    }
   }
  }
 }
}
MOTION
Frames: 8
Frame Time: 0.008333
0.000000 85.388000 0.000000 0.000000 -5.767877 0.000000 0.000000 11.653817 0.000000 0.000000 -5.885947 0.000000 0.000000 -0.000000 0.000000 0.000000 -0.000000 0.000000 0.000000 12.528835 0.000000 0.000000 0.711642 0.000000 0.000000 -0.000000 0.000000 0.000000 0.000000 -90.000000 0.000000 -2.309062 0.000000 0.000000 2.309062 0.000000 0.000000 -0.000000 0.000000 0.000000 -0.000000 90.000000 0.000000 -2.309062 0.000000 0.000000 2.309062 0.000000 0.000000 8.520406 0.000000 0.000000 1.905762 0.000000 -0.000000 -4.658285 0.000000 0.000000 -0.000000 0.000000 0.000000 8.520406 0.000000 0.000000 1.905762 0.000000 -0.000000 -4.658285 0.000000 0.000000 -0.000000 0.000000
-79.774271 57.358051 4.089922 159.885074 -8.219790 1.157484 2.114929 6.002849 0.776258 0.061404 0.221442 0.019526 0.130905 0.405063 -0.002479 1.784110 5.761587 0.241967 0.848502 14.664643 -0.362868 1.743316 -8.530917 -1.039646 2.855327 8.243343 2.483600 -7.270701 -10.895589 -9.826366 -66.046988 -78.524517 90.570548 -1.490018 6.288916 -19.480736 -4.138769 8.327035 -2.043504 16.833868 -5.301655 -0.080891 74.616489 -73.333373 -97.377365 -2.301839 11.480478 12.668017 -17.473869 -64.253024 9.819878 -29.794847 74.082455 -29.447556 -1.251977 -7.542526 -3.677726 -0.336329 0.534034 -0.116714 1.095202 -65.841746 15.896736 41.078302 65.151972 34.146245 -18.276617 -9.422775 3.486761 0.058495 -0.541972 -0.119618
-79.774520 57.356475 4.095099 159.865605 -8.213948 1.148788 2.118830 5.989088 0.808867 0.066287 0.225470 0.009213 0.135300 0.402460 -0.000641 1.781583 5.757255 0.247192 0.836502 14.715629 -0.386666 1.737218 -8.440574 -1.075725 2.854153 8.253182 2.472139 -7.279813 -10.911316 -9.844496 -66.154364 -78.550822 90.671136 -1.467487 6.317062 -19.371391 -4.129269 8.334105 -2.055175 16.855268 -5.324348 -0.064988 74.811616 -73.390001 -97.554952 -2.322647 11.495391 12.632654 -17.457166 -64.260671 9.852828 -29.856291 74.061138 -29.516563 -1.273352 -7.523114 -3.675278 -0.319623 0.526245 -0.110251 1.054622 -65.845144 15.940357 41.064324 65.155943 34.146868 -18.276281 -9.463315 3.507856 0.094283 -0.522928 -0.126261
-79.778045 57.354768 4.098875 159.859471 -8.213054 1.160203 2.110383 5.985333 0.809472 0.066457 0.224769 0.010203 0.135826 0.403277 -0.003026 1.765405 5.745660 0.268884 0.841312 14.770705 -0.426689 1.737132 -8.354017 -1.116124 2.872548 8.269544 2.444470 -7.299112 -10.919886 -9.856578 -66.280101 -78.574111 90.795702 -1.447878 6.346091 -19.247568 -4.108074 8.354266 -2.085693 16.876566 -5.346503 -0.048168 75.003314 -73.445700 -97.727559 -2.321047 11.522019 12.596170 -17.425213 -64.266854 9.832720 -29.836506 74.055741 -29.507473 -1.281833 -7.525610 -3.669250 -0.322386 0.535290 -0.113189 1.052375 -65.843598 15.929648 41.082222 65.151805 34.164311 -18.288693 -9.489658 3.543969 0.045169 -0.555752 -0.110957
-79.780784 57.352635 4.104194 159.833019 -8.206684 1.168447 2.132575 5.978497 0.807982 0.058769 0.222049 0.020185 0.132429 0.401961 -0.001890 1.766404 5.746358 0.272296 0.838849 14.815939 -0.451484 1.741067 -8.269646 -1.160809 2.875524 8.276682 2.441076 -7.318249 -10.921845 -9.873310 -66.421756 -78.595713 90.940037 -1.433464 6.373441 -19.122132 -4.096440 8.366367 -2.096786 16.888768 -5.358573 -0.038988 75.155860 -73.501447 -97.863441 -2.346595 11.539079 12.559836 -17.388351 -64.276515 9.829763 -29.797020 74.044239 -29.481641 -1.284069 -7.515633 -3.656936 -0.337072 0.540035 -0.121722 1.017134 -65.845664 15.954224 41.076308 65.152924 34.171743 -18.260816 -9.506485 3.550854 0.050333 -0.570220 -0.112571
-79.780437 57.350309 4.109947 159.827436 -8.205295 1.157740 2.128042 5.972596 0.832683 0.061749 0.223810 0.017817 0.121772 0.398110 0.012413 1.773914 5.750868 0.261983 0.838291 14.861305 -0.476913 1.748701 -8.184867 -1.207480 2.867907 8.298783 2.450225 -7.320810 -10.936975 -9.898613 -66.560219 -78.614218 91.078364 -1.426684 6.393812 -19.006666 -4.091240 8.382656 -2.101577 16.895280 -5.370074 -0.048725 75.244425 -73.558430 -97.933963 -2.394534 11.546014 12.523963 -17.393389 -64.277657 9.859683 -29.826921 74.031557 -29.514394 -1.301160 -7.507449 -3.657798 -0.327459 0.533443 -0.125530 0.856212 -65.843756 16.064008 41.085547 65.152967 34.188606 -18.188924 -9.496914 3.541094 0.046046 -0.604111 -0.114693
-79.780909 57.347977 4.114149 159.824510 -8.210552 1.157232 2.119546 5.974165 0.853614 0.068986 0.225871 0.007034 0.121674 0.398222 0.012674 1.772173 5.751975 0.263149 0.840432 14.907961 -0.499727 1.759531 -8.097056 -1.254924 2.862485 8.310666 2.448363 -7.317260 -10.945206 -9.908955 -66.641809 -78.625032 91.152402 -1.428186 6.405115 -18.948002 -4.099896 8.422409 -2.086515 16.926042 -5.394630 -0.064024 75.287718 -73.582590 -97.978988 -2.401047 11.549355 12.497364 -17.387067 -64.273385 9.860816 -29.828693 74.025762 -29.518731 -1.302994 -7.510756 -3.656171 -0.321905 0.539498 -0.128828 0.796459 -65.835503 16.105700 41.103861 65.144559 34.200022 -18.172966 -9.483206 3.544348 0.038558 -0.624101 -0.116106
-79.781271 57.345723 4.116590 159.816414 -8.224622 1.163531 2.125261 5.985881 0.856000 0.068913 0.225893 0.007145 0.121531 0.398216 0.012961 1.771707 5.754812 0.259764 0.842290 14.931731 -0.509730 1.777100 -7.980316 -1.308691 2.855083 8.323330 2.453926 -7.340562 -10.932977 -9.909484 -66.785032 -78.645439 91.304137 -1.427620 6.408777 -18.885252 -4.107884 8.441018 -2.076584 16.945185 -5.394902 -0.058428 75.328308 -73.587057 -98.022440 -2.391697 11.542761 12.484231 -17.361931 -64.263386 9.845595 -29.828407 74.022174 -29.523639 -1.307346 -7.512973 -3.649979 -0.318241 0.544048 -0.133869 0.773008 -65.819161 16.123648 41.126118 65.139126 34.211957 -18.167833 -9.463597 3.555382 0.022048 -0.651693 -0.118719
